<?xml version="1.0" encoding="utf-8"?>
<!-- Generator: Adobe Illustrator 16.0.0, SVG Export Plug-In . SVG Version: 6.00 Build 0)  -->
<!DOCTYPE svg PUBLIC "-//W3C//DTD SVG 1.1//EN" "http://www.w3.org/Graphics/SVG/1.1/DTD/svg11.dtd">
<svg version="1.1" id="Layer_1" xmlns="http://www.w3.org/2000/svg" xmlns:xlink="http://www.w3.org/1999/xlink" x="0px" y="0px"
	 width="62.625px" height="20.125px" viewBox="0 0 62.625 20.125" enable-background="new 0 0 62.625 20.125" xml:space="preserve">
<g>
	<g>
		<path fill-rule="evenodd" clip-rule="evenodd" fill="#FFFFFF" d="M12.008,13.288l4.937-4.837V2.125H1.375v16h4.937V6.59h5.696
			V13.288z M30.236,12.543V2.125H24.54l-15.569,16h5.696L25.299,7.334v10.046L30.236,12.543z M46.186,10.683l-3.418-3.721
			l4.557-4.837h-5.695l-1.899,1.86l-1.519-1.86h-5.697l4.557,4.837L26.059,18.125h6.456l7.215-7.814l3.417,3.349L46.186,10.683z
			 M55.679,2.125l-15.569,16h5.695L56.438,7.334v10.046l4.937-4.838V2.125H55.679z"/>
	</g>
</g>
</svg>
