<?xml version="1.0" encoding="utf-8"?>
<!-- Generator: Adobe Illustrator 16.0.0, SVG Export Plug-In . SVG Version: 6.00 Build 0)  -->
<!DOCTYPE svg PUBLIC "-//W3C//DTD SVG 1.1//EN" "http://www.w3.org/Graphics/SVG/1.1/DTD/svg11.dtd">
<svg version="1.1" id="Layer_1" xmlns="http://www.w3.org/2000/svg" xmlns:xlink="http://www.w3.org/1999/xlink" x="0px" y="0px"
	 width="24.625px" height="20.125px" viewBox="0 0 24.625 20.125" enable-background="new 0 0 24.625 20.125" xml:space="preserve">
<g>
	<g>
		<path fill-rule="evenodd" clip-rule="evenodd" fill="#FFFFFF" d="M14.377,10.604l5.839-5.839c0.201-0.201,0.201-0.528,0-0.729
			l-0.73-0.73c-0.201-0.202-0.528-0.202-0.729,0l-5.839,5.838L7.078,3.306c-0.201-0.202-0.528-0.202-0.729,0l-0.73,0.73
			c-0.201,0.201-0.201,0.528,0,0.729l5.839,5.839l-5.839,5.839c-0.201,0.201-0.201,0.528,0,0.729l0.73,0.73
			c0.201,0.201,0.528,0.201,0.729,0l5.839-5.839l5.839,5.839c0.201,0.201,0.528,0.201,0.729,0l0.73-0.73
			c0.201-0.201,0.201-0.528,0-0.729L14.377,10.604z"/>
	</g>
</g>
</svg>
